#!OML:ASF E:\motion texture\Top Level 1\Subject 1\Session 1\male.ASF
:FULLY-SPECIFIED
:DEGREES
411
root -9.2458 17.8374 7.52737 163.757 -83.4968 -157.069
lowerback -0.118661 0.0562093 1.22325
upperback -1.26659 0.0496399 3.90795
thorax -1.23508 0.00363266 3.33039
lowerneck -16.6638 2.85522 -0.27379
upperneck 18.4908 3.56978 1.58049
head 8.47033 1.79359 1.00093
rclavicle 8.49804e-015 -4.05521e-014
rhumerus -30.5646 -2.05682 -78.0271
rradius 48.4442
rwrist 12.3222
rhand -17.9249 -25.0754
rfingers 7.12502
rthumb 8.34276 -54.8907
lclavicle 8.49804e-015 -4.05521e-014
lhumerus -25.5159 -1.1868 83.774
lradius 44.8853
lwrist -16.0126
lhand -14.253 22.7474
lfingers 7.12502
lthumb 11.8851 52.3901
rfemur -27.6578 1.70038 22.1589
rtibia 19.4338
rfoot 1.07952 -11.9532
rtoes 18.6453
lfemur -5.59084 -4.04968 -16.3595
ltibia 40.2583
lfoot -3.93227 -3.97049
ltoes -19.6336
412
root -9.40525 17.85 7.48862 160.562 -83.4805 -153.967
lowerback -0.114766 0.137276 1.53444
upperback -1.26789 0.15617 3.98227
thorax -1.24318 0.0521244 3.23104
lowerneck -16.6935 2.81435 -0.281348
upperneck 18.4998 3.51112 1.60258
head 8.47878 1.7679 1.00328
rclavicle -5.96354e-016 7.95139e-016
rhumerus -30.2368 -1.59861 -78.0454
rradius 49.116
rwrist 12.5316
rhand -18.2354 -24.9298
rfingers 7.12502
rthumb 8.04316 -54.7568
lclavicle -5.96354e-016 7.95139e-016
lhumerus -25.928 -1.37422 84.2694
lradius 44.9004
lwrist -15.9616
lhand -14.2832 22.6241
lfingers 7.12502
lthumb 11.856 52.2685
rfemur -27.0487 1.72208 22.6794
rtibia 19.5784
rfoot 0.991185 -11.7761
rtoes 19.1434
lfemur -6.31799 -3.90787 -15.8361
ltibia 41.6997
lfoot -3.20579 -3.95141
ltoes -19.5762
413
root -9.56396 17.8631 7.44995 157.368 -83.445 -150.867
lowerback -0.11124 0.220986 1.84426
upperback -1.2674 0.266101 4.05373
thorax -1.24854 0.102263 3.12958
lowerneck -16.7244 2.77154 -0.289678
upperneck 18.5047 3.44907 1.62934
head 8.48604 1.74111 1.00687
rclavicle 9.88954e-015 3.02153e-014
rhumerus -29.9237 -1.15314 -78.0523
rradius 49.771
rwrist 12.746
rhand -18.5515 -24.7898
rfingers 7.12502
rthumb 7.73809 -54.6282
lclavicle 9.88954e-015 3.02153e-014
lhumerus -26.3484 -1.53862 84.7571
lradius 44.8942
lwrist -15.9052
lhand -14.3084 22.5071
lfingers 7.12502
lthumb 11.8317 52.1528
rfemur -26.4148 1.73679 23.2023
rtibia 19.6968
rfoot 0.87885 -11.6107
rtoes 19.6092
lfemur -7.08094 -3.76114 -15.312
ltibia 43.12
lfoot -2.52533 -3.90462
ltoes -19.5067
414
root -9.72189 17.8766 7.41144 154.223 -83.3898 -147.817
lowerback -0.109293 0.307582 2.15032
upperback -1.26488 0.379684 4.12196
thorax -1.25019 0.154233 3.02698
lowerneck -16.7564 2.72713 -0.300428
upperneck 18.505 3.38437 1.66162
head 8.49182 1.71355 1.01233
rclavicle 1.98785e-015 2.54444e-014
rhumerus -29.6248 -0.71692 -78.0497
rradius 50.4128
rwrist 12.9652
rhand -18.8732 -24.6583
rfingers 7.12502
rthumb 7.42752 -54.5079
lclavicle 1.98785e-015 2.54444e-014
lhumerus -26.7745 -1.67796 85.2351
lradius 44.8672
lwrist -15.8453
lhand -14.3337 22.3899
lfingers 7.12502
lthumb 11.8073 52.037
rfemur -25.758 1.74822 23.7234
rtibia 19.784
rfoot 0.741746 -11.4587
rtoes 20.0362
lfemur -7.87649 -3.60895 -14.7916
ltibia 44.5099
lfoot -1.89929 -3.83102
ltoes -19.4353
415
root -9.87898 17.8906 7.37316 151.155 -83.3165 -144.843
lowerback -0.108946 0.396861 2.4511
upperback -1.26015 0.496637 4.18635
thorax -1.24792 0.207943 2.9235
lowerneck -16.7903 2.68098 -0.313095
upperneck 18.5012 3.31689 1.69838
head 8.49647 1.6851 1.01925
rclavicle -5.56597e-015 -5.56597e-015
rhumerus -29.3378 -0.290209 -78.0396
rradius 51.0411
rwrist 13.1854
rhand -19.1959 -24.5381
rfingers 7.12502
rthumb 7.11605 -54.3985
lclavicle -5.56597e-015 -5.56597e-015
lhumerus -27.2056 -1.7917 85.7012
lradius 44.8244
lwrist -15.777
lhand -14.3606 22.2757
lfingers 7.12502
lthumb 11.7813 51.9244
rfemur -25.078 1.75782 24.2394
rtibia 19.8343
rfoot 0.577334 -11.3223
rtoes 20.4262
lfemur -8.70049 -3.45278 -14.278
ltibia 45.86
lfoot -1.3339 -3.73151
ltoes -19.3592
416
root -10.0351 17.9048 7.33516 148.193 -83.2264 -141.974
lowerback -0.109832 0.489239 2.74596
upperback -1.25388 0.617568 4.24598
thorax -1.24258 0.263739 2.81855
lowerneck -16.8259 2.63307 -0.327958
upperneck 18.4938 3.24653 1.74035
head 8.50017 1.65575 1.0279
rclavicle 2.04748e-014 4.13472e-014
rhumerus -29.0646 0.12871 -78.024
rradius 51.66
rwrist 13.4061
rhand -19.5221 -24.4287
rfingers 7.12502
rthumb 6.80114 -54.2994
lclavicle 2.04748e-014 4.13472e-014
lhumerus -27.6411 -1.87909 86.1529
lradius 44.7691
lwrist -15.7011
lhand -14.3855 22.1699
lfingers 7.12502
lthumb 11.7574 51.8199
rfemur -24.3778 1.76581 24.7482
rtibia 19.8466
rfoot 0.383852 -11.202
rtoes 20.7723
lfemur -9.5502 -3.2924 -13.7739
ltibia 47.162
lfoot -0.834932 -3.60671
ltoes -19.2872
417
root -10.1903 17.9191 7.29751 145.358 -83.1203 -139.23
lowerback -0.111069 0.584549 3.03405
upperback -1.24733 0.742359 4.30088
thorax -1.23593 0.321578 2.71266
lowerneck -16.861 2.58355 -0.345562
upperneck 18.4831 3.17364 1.78745
head 8.50257 1.62559 1.03836
rclavicle 9.93923e-017 2.38542e-015
rhumerus -28.806 0.543823 -78.005
rradius 52.2711
rwrist 13.6249
rhand -19.8485 -24.3362
rfingers 7.12502
rthumb 6.48607 -54.2169
lclavicle 9.93923e-017 2.38542e-015
lhumerus -28.082 -1.93823 86.588
lradius 44.7047
lwrist -15.618
lhand -14.4104 22.0698
lfingers 7.12502
lthumb 11.7333 51.7212
rfemur -23.6602 1.7719 25.2493
rtibia 19.8212
rfoot 0.162105 -11.0983
rtoes 21.0782
lfemur -10.422 -3.1276 -13.2806
ltibia 48.4069
lfoot -0.404454 -3.45824
ltoes -19.2143
418
root -10.3444 17.9336 7.2603 142.662 -83.0009 -136.623
lowerback -0.113942 0.682579 3.31546
upperback -1.23862 0.870585 4.35019
thorax -1.22527 0.381294 2.6049
lowerneck -16.8994 2.53257 -0.365459
upperneck 18.4691 3.09851 1.83886
head 8.50445 1.59474 1.05037
rclavicle 1.12313e-014 2.38542e-015
rhumerus -28.5582 0.952803 -77.9841
rradius 52.8762
rwrist 13.8434
rhand -20.177 -24.2531
rfingers 7.12502
rthumb 6.16897 -54.1433
lclavicle 1.12313e-014 2.38542e-015
lhumerus -28.5235 -1.96893 87.0039
lradius 44.6341
lwrist -15.5236
lhand -14.4329 21.9807
lfingers 7.12502
lthumb 11.7117 51.6334
rfemur -22.9269 1.77206 25.7413
rtibia 19.7591
rfoot -0.0870597 -11.0088
rtoes 21.3385
lfemur -11.3117 -2.96031 -12.8015
ltibia 49.587
lfoot -0.0468439 -3.28598
ltoes -19.1449
419
root -10.4975 17.948 7.22359 140.134 -82.8687 -134.181
lowerback -0.120182 0.783851 3.58932
upperback -1.22854 1.00286 4.39352
thorax -1.21039 0.443228 2.4954
lowerneck -16.9379 2.48045 -0.388658
upperneck 18.4516 3.02179 1.89487
head 8.50506 1.56343 1.06422
rclavicle 4.02539e-015 3.18055e-014
rhumerus -28.3219 1.3583 -77.9627
rradius 53.4771
rwrist 14.0616
rhand -20.504 -24.1798
rfingers 7.12502
rthumb 5.85326 -54.0789
lclavicle 4.02539e-015 3.18055e-014
lhumerus -28.9667 -1.96817 87.3981
lradius 44.5619
lwrist -15.4197
lhand -14.4517 21.9075
lfingers 7.12502
lthumb 11.6936 51.5612
rfemur -22.1828 1.76398 26.2239
rtibia 19.6664
rfoot -0.369871 -10.9301
rtoes 21.5488
lfemur -12.2153 -2.78856 -12.339
ltibia 50.693
lfoot 0.238524 -3.09039
ltoes -19.0772
420
root -10.6496 17.9623 7.18746 137.773 -82.7253 -131.903
lowerback -0.128537 0.888589 3.85601
upperback -1.21788 1.13958 4.43083
thorax -1.19278 0.507583 2.38392
lowerneck -16.977 2.427 -0.41429
upperneck 18.4311 2.94317 1.9545
head 8.50477 1.53147 1.07943
rclavicle 1.56543e-014 3.18055e-014
rhumerus -28.0974 1.7605 -77.9422
rradius 54.0768
rwrist 14.2786
rhand -20.8314 -24.1144
rfingers 7.12502
rthumb 5.53713 -54.022
lclavicle 1.56543e-014 3.18055e-014
lhumerus -29.4112 -1.93738 87.7691
lradius 44.4908
lwrist -15.3028
lhand -14.4673 21.8483
lfingers 7.12502
lthumb 11.6785 51.5028
rfemur -21.43 1.74713 26.6976
rtibia 19.5489
rfoot -0.690301 -10.8585
rtoes 21.7166
lfemur -13.1288 -2.61324 -11.8931
ltibia 51.7175
lfoot 0.449604 -2.87043
ltoes -19.0148
421
root -10.8005 17.9763 7.15191 135.587 -82.5751 -129.795
lowerback -0.139102 0.996565 4.11304
upperback -1.20661 1.28048 4.46123
thorax -1.17236 0.574283 2.27095
lowerneck -17.018 2.37204 -0.4421
upperneck 18.4088 2.86244 2.01739
head 8.50424 1.49874 1.09583
rclavicle -2.05742e-014 -2.22639e-014
rhumerus -27.8828 2.16018 -77.9237
rradius 54.6753
rwrist 14.4913
rhand -21.1586 -24.0569
rfingers 7.12502
rthumb 5.22123 -53.9726
lclavicle -2.05742e-014 -2.22639e-014
lhumerus -29.8549 -1.87679 88.1149
lradius 44.4255
lwrist -15.1733
lhand -14.4777 21.8053
lfingers 7.12502
lthumb 11.6685 51.4604
rfemur -20.6707 1.72273 27.1582
rtibia 19.4082
rfoot -1.03912 -10.7932
rtoes 21.8342
lfemur -14.049 -2.43613 -11.4677
ltibia 52.6536
lfoot 0.586837 -2.62651
ltoes -18.9604
422
root -10.9504 17.99 7.11705 133.593 -82.4206 -127.875
lowerback -0.15172 1.10735 4.35844
upperback -1.19539 1.42505 4.48415
thorax -1.14986 0.64311 2.15701
lowerneck -17.0598 2.31721 -0.474985
upperneck 18.3856 2.78164 2.08782
head 8.50341 1.46643 1.11558
rclavicle 8.54774e-015 3.65764e-014
rhumerus -27.6805 2.5594 -77.9089
rradius 55.2777
rwrist 14.7025
rhand -21.4737 -24.0118
rfingers 7.12502
rthumb 4.91693 -53.9348
lclavicle 8.54774e-015 3.65764e-014
lhumerus -30.3009 -1.78315 88.4334
lradius 44.3706
lwrist -15.0324
lhand -14.4884 21.7734
lfingers 7.12502
lthumb 11.6582 51.429
rfemur -19.9073 1.69292 27.6019
rtibia 19.247
rfoot -1.40572 -10.7361
rtoes 21.9122
lfemur -14.97 -2.25786 -11.0667
ltibia 53.4932
lfoot 0.649755 -2.35726
ltoes -18.9046
423
root -11.099 18.0032 7.08288 131.772 -82.2623 -126.122
lowerback -0.166331 1.22108 4.59427
upperback -1.18453 1.57345 4.50018
thorax -1.12561 0.714117 2.04159
lowerneck -17.1001 2.2616 -0.50792
upperneck 18.3593 2.70027 2.15646
head 8.5014 1.43367 1.13459
rclavicle -1.16786e-014 -5.56597e-015
rhumerus -27.4872 2.95935 -77.8984
rradius 55.8825
rwrist 14.9129
rhand -21.7805 -23.9679
rfingers 7.12502
rthumb 4.62069 -53.8976
lclavicle -1.16786e-014 -5.56597e-015
lhumerus -30.7458 -1.65843 88.7235
lradius 44.3288
lwrist -14.8785
lhand -14.4981 21.7555
lfingers 7.12502
lthumb 11.6488 51.4117
rfemur -19.1438 1.65963 28.0306
rtibia 19.0663
rfoot -1.78292 -10.6894
rtoes 21.9538
lfemur -15.8904 -2.07938 -10.6871
ltibia 54.2305
lfoot 0.644267 -2.06524
ltoes -18.8475
424
root -11.2466 18.0158 7.04944 130.133 -82.1024 -124.545
lowerback -0.183013 1.33818 4.8191
upperback -1.17386 1.7263 4.50882
thorax -1.09937 0.787638 1.92497
lowerneck -17.1408 2.20524 -0.544086
upperneck 18.3316 2.61831 2.22736
head 8.49899 1.40066 1.1548
rclavicle 5.11871e-015 3.18055e-015
rhumerus -27.3039 3.36008 -77.8934
rradius 56.4941
rwrist 15.1212
rhand -22.079 -23.9282
rfingers 7.12502
rthumb 4.33248 -53.8639
lclavicle 5.11871e-015 3.18055e-015
lhumerus -31.1897 -1.50301 88.9845
lradius 44.3031
lwrist -14.7152
lhand -14.5083 21.7497
lfingers 7.12502
lthumb 11.6389 51.4065
rfemur -18.3813 1.62596 28.4414
rtibia 18.8679
rfoot -2.1695 -10.6502
rtoes 21.9597
lfemur -16.8043 -1.9013 -10.3319
ltibia 54.8588
lfoot 0.57323 -1.74966
ltoes -18.7848
425
root -11.3931 18.0278 7.01681 128.656 -81.9417 -123.125
lowerback -0.200355 1.45838 5.03489
upperback -1.16441 1.88337 4.51035
thorax -1.07294 0.863505 1.80633
lowerneck -17.1808 2.14859 -0.582293
upperneck 18.3041 2.53628 2.29934
head 8.49655 1.36758 1.17568
rclavicle 1.02374e-014 -3.33958e-014
rhumerus -27.1315 3.76027 -77.8944
rradius 57.1147
rwrist 15.3283
rhand -22.3627 -23.9016
rfingers 7.12502
rthumb 4.05849 -53.8427
lclavicle 1.02374e-014 -3.33958e-014
lhumerus -31.6353 -1.31882 89.2158
lradius 44.2997
lwrist -14.5408
lhand -14.5161 21.7641
lfingers 7.12502
lthumb 11.6315 51.4212
rfemur -17.6211 1.59087 28.8353
rtibia 18.6529
rfoot -2.56167 -10.6121
rtoes 21.9287
lfemur -17.7071 -1.72549 -9.99983
ltibia 55.372
lfoot 0.438472 -1.41205
ltoes -18.7148
